<?xml version="1.0" standalone="no"?>
<!DOCTYPE svg PUBLIC "-//W3C//DTD SVG 20010904//EN"
 "http://www.w3.org/TR/2001/REC-SVG-20010904/DTD/svg10.dtd">
<svg version="1.0" xmlns="http://www.w3.org/2000/svg"
 width="500.000000pt" height="500.000000pt" viewBox="0 0 500.000000 500.000000"
 preserveAspectRatio="xMidYMid meet">
<metadata>
Created by potrace 1.14, written by Peter Selinger 2001-2017
</metadata>
<g transform="translate(0.000000,500.000000) scale(0.100000,-0.100000)"
fill="#000000" stroke="none">
<path d="M1708 4969 c15 -18 35 -39 44 -48 9 -9 57 -54 106 -101 49 -47 101
-96 115 -109 15 -13 27 -29 27 -36 0 -7 9 -15 19 -18 11 -2 33 -24 51 -48 17
-24 40 -47 51 -51 11 -4 17 -12 14 -18 -3 -6 1 -13 11 -17 16 -6 15 -7 -2 -20
-10 -7 -14 -13 -9 -13 5 0 0 -7 -11 -15 -10 -8 -29 -15 -41 -15 -13 0 -23 -4
-23 -10 0 -5 -7 -6 -17 -3 -10 4 -14 2 -10 -4 3 -5 -6 -16 -21 -24 -15 -8 -55
-35 -88 -61 -34 -27 -65 -48 -69 -48 -14 0 -158 -156 -190 -205 -36 -56 -73
-184 -76 -260 -1 -27 -6 -72 -10 -100 -22 -130 -32 -278 -35 -480 -2 -242 -6
-226 61 -260 28 -15 31 -40 4 -42 -23 -2 -59 -30 -59 -47 0 -5 12 -22 26 -37
16 -17 28 -43 31 -70 4 -24 15 -57 25 -74 10 -18 18 -49 18 -76 0 -66 18 -150
35 -169 9 -10 26 -78 40 -161 14 -79 34 -175 46 -214 11 -38 24 -84 28 -100
23 -91 124 -310 162 -351 10 -11 19 -23 19 -27 0 -3 16 -23 35 -44 40 -44 44
-63 13 -64 -17 -1 -19 -2 -5 -6 21 -6 21 -8 1 -38 -13 -19 -14 -28 -5 -39 9
-10 8 -15 -4 -19 -8 -4 -14 -1 -12 6 1 7 -6 11 -17 9 -15 -3 -18 1 -13 17 3
12 1 21 -3 21 -17 0 -21 -19 -8 -39 7 -11 8 -24 4 -28 -5 -4 -11 -2 -13 5 -6
16 -24 16 -22 -1 1 -6 1 -21 0 -31 -1 -18 -2 -18 -20 -2 -18 16 -20 15 -49
-14 -17 -16 -38 -30 -46 -30 -9 0 -16 -4 -16 -10 0 -5 -7 -10 -15 -10 -10 0
-15 -11 -16 -32 -1 -31 -2 -31 -8 -8 -6 22 -8 23 -14 7 -4 -11 -5 -23 -1 -28
3 -5 0 -9 -5 -9 -6 0 -11 -6 -11 -14 0 -8 -6 -17 -12 -20 -7 -4 -2 -4 12 -2
24 5 24 5 5 -10 -11 -9 -19 -19 -18 -24 2 -5 -4 -7 -12 -4 -8 4 -15 1 -15 -5
0 -6 -4 -11 -10 -11 -5 0 -10 11 -10 25 0 14 -4 25 -10 25 -5 0 -10 -7 -10
-14 0 -8 -11 -27 -25 -42 -14 -15 -25 -22 -25 -15 0 6 -7 11 -15 11 -9 0 -18
7 -21 15 -8 19 -23 10 -34 -21 -5 -13 -17 -24 -26 -24 -9 0 -23 -8 -31 -17
-11 -13 -13 -14 -10 -3 2 8 -3 20 -12 27 -22 17 -32 16 -25 -2 5 -12 -3 -15
-35 -15 -29 0 -41 -4 -41 -15 0 -8 -13 -21 -30 -30 -16 -9 -30 -22 -30 -31 0
-8 -4 -13 -10 -9 -5 3 -6 13 -3 23 4 10 -4 6 -20 -11 -15 -15 -27 -25 -27 -21
0 5 -5 3 -12 -4 -7 -7 -21 -12 -32 -12 -16 0 -17 -3 -8 -12 7 -7 12 -16 12
-20 0 -11 -28 -10 -32 1 -1 5 -12 3 -23 -5 -14 -11 -15 -15 -5 -14 8 1 24 1
35 0 16 -1 14 -4 -9 -12 -24 -9 -31 -8 -41 5 -10 14 -14 12 -38 -12 -14 -16
-41 -32 -59 -36 -24 -6 -28 -9 -14 -12 17 -4 16 -6 -5 -17 -20 -10 -25 -9 -31
3 -5 13 -8 11 -14 -7 -4 -13 -14 -22 -23 -21 -39 4 -72 -2 -66 -11 3 -5 0 -10
-8 -10 -8 0 -34 -11 -58 -23 -24 -13 -63 -27 -85 -30 -45 -7 -112 -40 -144
-69 -10 -10 -24 -18 -30 -18 -5 0 -10 -4 -10 -10 0 -5 -15 -17 -33 -26 -17
-10 -48 -29 -67 -44 -30 -23 -133 -68 -195 -84 -35 -10 -71 -49 -105 -116 -31
-59 -104 -160 -122 -168 -5 -2 -8 -55 -8 -118 l0 -114 2500 0 2500 0 0 441 c0
291 -3 438 -10 434 -5 -3 -10 -13 -10 -21 0 -9 -10 -14 -29 -14 -16 0 -42 -5
-58 -11 -39 -15 -139 -12 -174 6 -16 9 -29 11 -29 5 0 -5 -7 -10 -16 -10 -11
0 -15 6 -11 19 3 13 -1 21 -13 24 -10 3 -21 18 -25 36 -4 17 -11 31 -17 31 -6
0 -8 7 -5 14 4 9 -1 17 -12 21 -10 3 -21 18 -24 33 -6 29 -40 42 -352 137 -49
15 -128 46 -175 68 -47 22 -103 42 -125 45 -48 6 -90 39 -127 98 -23 37 -93
94 -114 94 -3 0 -33 13 -67 28 -54 25 -114 48 -154 58 -7 2 -15 18 -18 37 -6
29 2 53 49 148 79 164 95 226 128 499 6 52 11 155 12 228 0 72 3 132 7 132 3
0 11 21 17 48 6 26 14 58 18 71 4 15 3 22 -2 18 -12 -7 -7 141 7 253 5 41 10
83 11 92 1 9 7 14 12 11 5 -4 7 3 4 15 -4 12 -2 20 3 16 5 -3 9 -1 9 5 0 5 -9
13 -20 16 -22 7 -25 16 -11 31 5 5 14 44 20 86 9 64 8 89 -5 140 -8 35 -21 95
-29 135 -12 65 -53 208 -74 258 -5 11 -21 61 -36 110 -57 186 -152 352 -262
455 -93 86 -110 100 -119 100 -4 0 -15 6 -23 14 -32 28 -137 74 -186 81 -27 3
-83 18 -123 31 -70 24 -79 25 -251 20 -98 -3 -185 -8 -192 -10 -46 -14 -69
-16 -69 -4 0 9 -3 10 -8 2 -13 -19 -53 -24 -59 -7 -5 13 -8 12 -14 -5 -5 -12
-14 -22 -21 -22 -10 0 -10 2 1 9 11 7 10 14 -5 40 -17 29 -38 37 -81 32 -18
-2 -25 16 -7 23 8 3 13 10 9 16 -4 6 -15 6 -31 0 -37 -14 -49 -13 -34 5 9 10
9 15 1 15 -6 0 -11 8 -11 18 0 14 -2 15 -10 2 -9 -13 -11 -13 -20 0 -9 15 -14
43 -11 68 1 6 -3 12 -9 12 -5 0 -10 -5 -10 -11 0 -5 -4 -7 -10 -4 -5 3 -10 15
-10 26 0 10 -4 19 -10 19 -5 0 -10 -4 -10 -10 0 -5 -4 -10 -10 -10 -5 0 -10 7
-10 17 0 16 -8 26 -57 77 -13 13 -23 29 -23 35 0 7 -8 11 -17 9 -14 -2 -19 6
-23 32 l-5 35 -72 3 -72 3 27 -32z m92 1 c0 -5 -7 -10 -16 -10 -8 0 -12 5 -9
10 3 6 10 10 16 10 5 0 9 -4 9 -10z m357 -366 c-3 -3 -12 -4 -19 -1 -8 3 -5 6
6 6 11 1 17 -2 13 -5z m658 -153 c3 -5 1 -12 -5 -16 -5 -3 -10 1 -10 9 0 18 6
21 15 7z m-280 -481 c3 -5 1 -10 -4 -10 -6 0 -11 5 -11 10 0 6 2 10 4 10 3 0
8 -4 11 -10z m9 -35 c-4 -8 -1 -15 5 -15 6 0 11 5 11 10 0 6 7 10 15 10 8 0
15 -6 15 -14 0 -7 7 -20 16 -27 15 -12 16 -11 10 9 -5 16 -3 22 7 22 8 0 17
-7 21 -15 3 -8 10 -15 15 -15 6 0 8 6 5 14 -8 22 15 30 35 12 22 -20 45 -20
61 -1 7 8 17 15 23 15 6 0 3 -6 -8 -13 -20 -16 -5 -33 20 -23 21 8 45 -3 45
-20 0 -9 11 -14 29 -14 31 0 49 -14 32 -24 -12 -8 -11 -66 1 -66 4 0 8 -4 8
-9 0 -12 -41 -11 -57 2 -9 6 -13 6 -13 -2 0 -6 -12 -11 -27 -10 -26 1 -145
-13 -241 -27 -37 -6 -44 -4 -48 13 -3 10 -14 24 -24 31 -18 11 -19 10 -8 -13
7 -16 8 -29 2 -34 -12 -11 -164 -22 -164 -11 0 20 13 40 26 40 8 0 14 4 14 9
0 4 11 20 25 34 14 14 27 38 28 55 1 19 6 28 15 25 6 -3 12 -9 12 -14 0 -17
19 -9 25 11 3 11 12 20 20 20 7 0 16 11 19 25 4 14 13 25 21 25 9 0 12 -6 9
-15z m339 -52 c-7 -2 -19 -2 -25 0 -7 3 -2 5 12 5 14 0 19 -2 13 -5z m552
-149 c23 -30 52 -114 59 -171 9 -75 -1 -82 -110 -75 -64 4 -85 2 -80 -6 4 -7
3 -12 -1 -12 -5 0 -15 33 -21 73 -7 39 -24 104 -37 142 -14 39 -25 72 -25 74
0 2 45 1 101 -2 82 -4 103 -8 114 -23z m153 -47 c22 -23 34 -69 51 -197 8 -61
7 -79 -5 -97 -12 -19 -18 -21 -38 -12 -30 14 -52 57 -36 73 8 8 17 4 32 -14
l21 -25 -7 96 c-7 109 -20 156 -50 181 -17 14 -18 17 -5 18 8 0 25 -10 37 -23z
m-615 -245 c15 -10 33 -26 40 -36 7 -10 32 -20 56 -23 31 -4 45 -11 48 -24 3
-10 9 -16 14 -13 12 7 11 1 -4 -30 -8 -14 -17 -23 -20 -19 -4 3 -14 0 -22 -7
-9 -8 -37 -15 -63 -16 -80 -5 -92 -8 -105 -33 -14 -29 -44 -43 -34 -17 6 14 3
15 -14 5 -13 -6 -19 -17 -16 -28 6 -23 -10 -51 -28 -51 -8 0 -15 -9 -15 -20 0
-11 -12 -26 -29 -35 -19 -9 -34 -28 -42 -52 -7 -21 -19 -43 -26 -48 -8 -6 -13
-15 -12 -20 1 -6 -1 -32 -5 -60 -6 -36 -15 -55 -33 -69 -24 -17 -27 -18 -59
-2 -19 8 -34 21 -35 28 -2 53 -9 82 -19 88 -7 5 -10 17 -7 30 3 14 0 23 -9 27
-8 3 -13 12 -10 19 3 7 1 16 -4 19 -6 4 -10 19 -10 36 0 30 -9 36 -27 18 -8
-8 -13 -8 -17 0 -4 6 -25 11 -47 11 -33 0 -41 4 -49 25 -5 14 -18 28 -27 31
-30 9 -48 21 -48 30 0 5 -4 14 -8 21 -4 6 -1 13 5 16 26 9 -4 21 -55 22 -28 0
-58 4 -66 9 -10 6 -19 3 -28 -10 -13 -18 -15 -18 -27 -2 -19 26 -7 75 25 102
16 14 52 29 81 35 29 6 64 14 78 16 93 20 127 24 225 31 61 3 112 8 114 10 2
2 72 4 155 4 129 0 155 -3 179 -18z m-876 -104 c-3 -8 -6 -5 -6 6 -1 11 2 17
5 13 3 -3 4 -12 1 -19z m1099 -193 c-4 -14 -11 -25 -18 -25 -6 0 -16 -7 -22
-15 -12 -17 -108 -36 -126 -25 -9 5 -8 13 1 29 15 23 64 36 105 28 18 -3 30 2
42 18 21 28 27 25 18 -10z m60 5 c0 -11 -4 -20 -8 -20 -10 0 -11 24 -1 33 9 9
9 10 9 -13z m-1147 -27 c17 -10 31 -22 31 -26 0 -5 7 -15 15 -23 8 -9 15 -19
15 -23 0 -20 -29 -42 -61 -47 -32 -5 -38 -3 -44 15 -3 12 -11 19 -16 16 -5 -4
-9 1 -9 10 0 12 -6 15 -20 10 -14 -5 -20 -2 -20 9 0 9 7 16 15 16 9 0 18 12
22 30 7 35 26 39 72 13z m1121 -20 c0 -7 -7 -13 -16 -13 -11 0 -14 5 -10 16 3
9 6 21 6 27 0 16 20 -14 20 -30z m47 -5 c-3 -7 -5 -2 -5 12 0 14 2 19 5 13 2
-7 2 -19 0 -25z m-167 -78 c0 -5 7 -10 15 -10 8 0 15 -4 15 -10 0 -15 -42 -12
-63 4 -14 11 -15 15 -5 19 22 9 38 8 38 -3z m-973 -66 c-3 -3 -12 -4 -19 -1
-8 3 -5 6 6 6 11 1 17 -2 13 -5z m993 -20 c0 -8 -7 -14 -15 -14 -15 0 -21 21
-9 33 10 9 24 -2 24 -19z m-97 -21 c2 -10 8 -25 11 -33 5 -13 -4 -16 -64 -15
-38 0 -70 3 -70 8 0 4 7 7 15 7 8 0 15 4 15 9 0 9 58 40 76 41 7 0 14 -8 17
-17z m242 -13 c3 -5 -8 -16 -24 -25 -40 -20 -54 -20 -42 3 5 9 12 25 15 35 5
14 10 16 25 7 11 -5 23 -14 26 -20z m-365 10 c0 -5 -5 -10 -11 -10 -5 0 -7 5
-4 10 3 6 8 10 11 10 2 0 4 -4 4 -10z m-30 -9 c0 -12 -20 -25 -27 -18 -7 7 6
27 18 27 5 0 9 -4 9 -9z m-730 -53 c0 -5 -7 -8 -15 -8 -15 0 -20 21 -8 33 7 7
23 -11 23 -25z m178 -10 c23 -11 42 -24 42 -29 0 -5 -20 -9 -45 -9 -25 0 -62
-7 -81 -15 -34 -14 -36 -14 -29 3 4 9 9 26 12 37 10 41 12 43 35 38 13 -3 42
-14 66 -25z m67 22 c3 -5 -1 -10 -9 -10 -9 0 -16 5 -16 10 0 6 4 10 9 10 6 0
13 -4 16 -10z m730 -31 c5 -5 -34 -9 -108 -9 -106 0 -147 10 -99 24 27 8 196
-4 207 -15z m-1062 -34 l28 -35 -29 0 c-17 0 -40 9 -53 20 -24 20 -24 20 -5
35 27 20 27 20 59 -20z m587 -18 c14 4 20 -2 25 -27 5 -22 11 -30 21 -26 9 4
12 2 8 -5 -3 -6 -19 -9 -35 -5 -16 3 -29 2 -29 -3 0 -10 46 -31 68 -31 10 0
23 -5 30 -12 9 -9 12 -9 12 0 0 7 -5 12 -11 12 -5 0 -8 4 -4 10 8 13 35 1 35
-16 0 -8 7 -17 15 -20 11 -5 12 -9 2 -25 -10 -16 -9 -21 2 -28 8 -5 11 -16 7
-29 -6 -18 -3 -21 20 -19 20 1 31 -4 39 -20 7 -13 15 -20 18 -16 4 3 7 1 7 -5
0 -7 7 -12 15 -12 8 0 32 -17 55 -37 44 -41 52 -76 20 -93 -11 -6 -20 -8 -20
-4 0 3 -7 1 -15 -6 -8 -7 -20 -8 -27 -4 -24 15 -85 -7 -73 -26 3 -4 -7 -15
-20 -24 -14 -9 -23 -20 -21 -25 9 -13 -53 -42 -92 -43 -51 0 -82 14 -127 57
-35 33 -41 35 -51 20 -19 -26 -98 -8 -102 23 -2 14 -8 20 -15 16 -7 -4 -2 4
10 17 18 20 20 28 10 38 -10 11 -5 12 26 7 29 -6 37 -4 37 8 0 10 -6 13 -16 9
-37 -14 -5 23 39 46 25 13 44 28 41 32 -7 13 10 11 22 -1 6 -6 19 -8 29 -4 17
7 17 8 0 20 -14 11 -16 16 -6 28 7 8 8 17 3 20 -5 3 -12 26 -15 51 -7 47 7 85
29 85 7 0 15 7 18 16 3 8 10 12 16 9 5 -3 10 0 10 9 0 15 -16 16 -37 3 -15 -9
-16 5 -6 43 7 23 8 24 11 4 2 -16 8 -20 22 -17z m280 2 c0 -6 -4 -7 -10 -4 -5
3 -10 11 -10 16 0 6 5 7 10 4 6 -3 10 -11 10 -16z m-547 0 c-6 -6 -35 -14 -64
-18 -30 -4 -60 -10 -67 -14 -6 -5 -24 -10 -39 -12 -16 -2 -40 -6 -55 -10 -28
-7 -42 12 -15 19 38 11 117 26 151 30 21 3 41 7 44 10 3 3 17 6 31 6 18 0 22
-3 14 -11z m7 -32 c0 -16 -73 -115 -105 -142 -50 -43 -62 -51 -110 -75 -28
-14 -51 -28 -53 -32 -2 -5 -10 -8 -18 -8 -8 0 -14 -7 -14 -15 0 -11 -5 -12
-26 -5 -14 6 -30 8 -35 4 -5 -3 -9 5 -9 18 0 13 -5 29 -11 35 -7 7 -8 17 -3
25 5 7 7 21 6 31 -2 12 3 17 19 17 18 0 19 -2 9 -15 -10 -13 -9 -15 8 -15 11
0 23 8 26 18 4 11 38 31 89 52 98 40 207 98 207 111 0 5 5 9 10 9 6 0 10 -6
10 -13z m790 -59 c0 -9 73 -7 80 2 9 14 50 -9 50 -28 0 -24 -19 -42 -36 -35
-16 6 -19 -13 -4 -22 6 -3 10 -17 10 -31 0 -19 -5 -24 -24 -24 -13 0 -27 6
-30 13 -3 6 -2 -1 1 -18 6 -27 5 -29 -10 -16 -10 7 -17 19 -17 26 0 7 -8 12
-17 11 -11 0 -18 6 -18 18 0 11 -17 28 -45 43 -25 14 -54 31 -64 39 -18 12
-18 13 7 19 14 4 35 4 46 0 12 -3 21 -2 21 3 0 6 11 9 25 8 14 0 25 -4 25 -8z
m-1493 -115 c-3 -10 -5 -4 -5 12 0 17 2 24 5 18 2 -7 2 -21 0 -30z m1393 -8
c0 -9 9 -15 23 -15 94 1 105 -5 65 -33 -13 -9 -18 -16 -11 -16 6 -1 15 4 18 9
3 6 15 10 26 10 16 0 19 -5 14 -20 -4 -11 -2 -20 4 -20 6 0 11 7 11 16 0 10 6
14 15 10 8 -3 19 2 24 12 11 18 10 21 16 -47 2 -22 0 -29 -6 -20 -5 8 -6 23
-3 34 6 19 4 18 -17 -3 -19 -18 -21 -24 -10 -31 8 -6 9 -11 3 -15 -6 -4 -15 2
-21 11 -10 18 -12 17 -15 -9 -1 -7 -7 -12 -14 -10 -14 3 -16 -14 -2 -23 5 -3
9 -21 7 -38 -1 -25 2 -32 16 -31 19 2 20 -1 11 -33 -4 -13 -13 -23 -21 -23
-10 0 -12 -6 -7 -22 3 -13 3 -20 -1 -16 -4 4 -25 -11 -46 -33 -21 -22 -40 -35
-44 -29 -4 6 -11 7 -17 4 -6 -4 -14 0 -19 7 -8 12 -11 12 -20 -1 -8 -11 -12
-12 -16 -2 -2 6 -11 12 -19 12 -18 0 -19 46 -1 57 8 4 22 23 32 40 17 28 18
39 8 85 -11 54 0 90 34 111 17 11 7 28 -12 20 -9 -3 -15 1 -15 8 0 8 -3 24 -6
37 -4 13 -2 22 5 22 6 0 11 -7 11 -15z m250 -4 c0 -5 -7 -14 -15 -21 -8 -7
-15 -10 -15 -7 0 3 -3 12 -6 21 -4 12 0 16 15 16 12 0 21 -4 21 -9z m5 -121
c3 -5 -1 -10 -10 -10 -9 0 -13 5 -10 10 3 6 8 10 10 10 2 0 7 -4 10 -10z
m-1036 -40 c9 0 7 -122 -2 -137 -4 -6 -1 -13 5 -16 9 -3 7 -9 -7 -20 -10 -8
-25 -13 -32 -10 -7 3 -13 0 -13 -6 0 -6 5 -10 11 -8 6 1 14 -4 16 -10 7 -19
-42 -16 -57 2 -17 21 -30 19 -30 -4 0 -21 -17 -37 -28 -26 -4 3 1 20 11 37 16
28 16 33 2 55 -16 24 -12 63 6 63 6 0 7 4 4 10 -3 5 -1 19 5 31 9 15 19 20 36
16 17 -3 25 1 30 15 3 12 11 17 21 14 8 -3 18 -6 22 -6z m976 -38 c-8 -8 -25
10 -25 26 0 13 2 13 14 -4 8 -10 13 -21 11 -22z m42 12 c-3 -3 -12 -4 -19 -1
-8 3 -5 6 6 6 11 1 17 -2 13 -5z m-717 -196 c0 -4 -6 -8 -14 -8 -8 0 -17 -7
-20 -16 -10 -26 -7 -28 13 -10 16 15 26 15 92 5 80 -13 118 -33 119 -62 0 -10
14 -32 30 -49 17 -16 30 -39 30 -51 0 -32 -50 -81 -85 -85 -16 -2 -36 -9 -44
-15 -11 -9 -16 -8 -24 5 -10 15 -12 15 -22 1 -8 -11 -20 -14 -39 -9 -15 4 -24
11 -21 16 3 5 -13 14 -35 21 -44 13 -48 20 -25 39 8 7 15 20 15 30 0 9 7 31
16 48 14 29 14 33 -3 56 -10 14 -25 27 -34 29 -19 5 -19 49 0 55 11 4 10 6 0
13 -12 8 -12 11 1 18 15 10 50 -12 50 -31z m-350 -138 c0 -5 -2 -10 -4 -10 -3
0 -8 5 -11 10 -3 6 -1 10 4 10 6 0 11 -4 11 -10z m57 -225 c-9 -8 -14 -22 -11
-30 4 -8 1 -15 -5 -15 -17 0 -13 36 5 55 9 9 19 14 21 11 3 -3 -2 -12 -10 -21z
m606 -3 c8 -7 17 -9 21 -5 4 4 4 0 0 -10 -4 -12 -1 -17 12 -18 14 0 15 -2 4
-6 -99 -32 -171 -81 -125 -84 51 -3 65 -2 79 10 21 18 46 7 47 -21 l0 -23 9
23 c12 27 30 29 30 2 0 -11 -4 -20 -10 -20 -5 0 -10 -8 -10 -17 0 -9 -3 -14
-6 -10 -11 10 -34 -20 -34 -45 0 -16 -3 -19 -8 -10 -5 8 -16 10 -27 6 -15 -6
-17 -4 -13 13 5 19 3 20 -22 11 -16 -5 -36 -18 -46 -29 -18 -20 -59 -25 -83
-10 -9 6 -19 4 -28 -5 -26 -25 -45 -17 -38 15 3 17 2 32 -4 36 -23 13 -10 27
19 22 22 -5 30 -3 30 8 0 8 10 23 22 35 21 19 21 20 2 21 -22 1 -86 7 -126 11
-36 4 -36 25 1 65 27 30 33 32 132 40 127 10 154 10 172 -5z m117 -56 c0 -3
-4 -8 -10 -11 -5 -3 -10 -1 -10 4 0 6 5 11 10 11 6 0 10 -2 10 -4z m18 -31
c-6 -14 -13 -24 -14 -22 -6 6 9 47 17 47 5 0 3 -11 -3 -25z m-403 -126 c11
-16 1 -19 -13 -3 -7 8 -8 14 -3 14 5 0 13 -5 16 -11z m-565 -89 c0 -5 -4 -10
-9 -10 -6 0 -13 5 -16 10 -3 6 1 10 9 10 9 0 16 -4 16 -10z m756 -96 c6 -8 15
-10 20 -6 5 4 1 -3 -10 -15 -10 -12 -25 -21 -34 -21 -10 1 -35 -2 -57 -5 -38
-7 -39 -7 -20 8 11 9 19 21 17 27 -1 5 2 16 9 24 13 16 58 9 75 -12z m-1619
-470 c-3 -3 -12 -4 -19 -1 -8 3 -5 6 6 6 11 1 17 -2 13 -5z"/>
<path d="M2660 3830 c0 -5 5 -10 10 -10 6 0 10 5 10 10 0 6 -4 10 -10 10 -5 0
-10 -4 -10 -10z"/>
<path d="M2605 2660 c-3 -5 -1 -10 4 -10 6 0 11 5 11 10 0 6 -2 10 -4 10 -3 0
-8 -4 -11 -10z"/>
<path d="M2670 2582 c0 -12 19 -26 26 -19 2 2 -2 10 -11 17 -9 8 -15 8 -15 2z"/>
<path d="M2645 2520 c-3 -6 1 -7 9 -4 18 7 21 14 7 14 -6 0 -13 -4 -16 -10z"/>
<path d="M2495 2450 c3 -5 10 -10 16 -10 5 0 9 5 9 10 0 6 -7 10 -16 10 -8 0
-12 -4 -9 -10z"/>
<path d="M2055 2500 c-3 -5 -1 -10 4 -10 6 0 11 5 11 10 0 6 -2 10 -4 10 -3 0
-8 -4 -11 -10z"/>
<path d="M3255 2670 c-3 -5 3 -10 14 -10 12 0 21 5 21 10 0 6 -6 10 -14 10 -8
0 -18 -4 -21 -10z"/>
<path d="M3215 2609 c-4 -6 -5 -13 -2 -16 7 -7 27 6 27 18 0 12 -17 12 -25 -2z"/>
<path d="M3250 2590 c0 -5 5 -10 10 -10 6 0 10 5 10 10 0 6 -4 10 -10 10 -5 0
-10 -4 -10 -10z"/>
<path d="M2682 2053 c-7 -2 -17 -14 -23 -25 -11 -20 -10 -20 20 1 39 28 41 39
3 24z"/>
<path d="M2713 1984 c-11 -23 -10 -24 25 -24 30 0 34 2 22 13 -8 6 -20 17 -25
23 -8 9 -14 5 -22 -12z"/>
<path d="M2245 4600 c3 -5 8 -10 11 -10 2 0 4 5 4 10 0 6 -5 10 -11 10 -5 0
-7 -4 -4 -10z"/>
<path d="M2017 1559 c7 -7 15 -10 18 -7 3 3 -2 9 -12 12 -14 6 -15 5 -6 -5z"/>
<path d="M1586 1183 c-11 -11 -6 -23 9 -23 8 0 15 4 15 9 0 13 -16 22 -24 14z"/>
<path d="M1480 1140 c0 -5 10 -10 23 -10 18 0 19 2 7 10 -19 13 -30 13 -30 0z"/>
<path d="M1310 1110 c0 -5 5 -10 10 -10 6 0 10 5 10 10 0 6 -4 10 -10 10 -5 0
-10 -4 -10 -10z"/>
<path d="M1005 920 c-3 -5 -1 -10 4 -10 6 0 11 5 11 10 0 6 -2 10 -4 10 -3 0
-8 -4 -11 -10z"/>
</g>
</svg>
